<svg id="Layer_1" data-name="Layer 1" xmlns="http://www.w3.org/2000/svg" width="20.0103" height="21.9217" viewBox="0 0 20.0103 21.9217"><defs><style>.cls-1{fill:#666fdd;}</style></defs><path class="cls-1" d="M5.1259,21.9217a2.8455,2.8455,0,0,1-2.2031-1.22,1.9146,1.9146,0,0,1-.571-1.4947,1.8159,1.8159,0,0,1,.2559-.8082,2.2882,2.2882,0,0,1-.4743-.4556,2.2234,2.2234,0,0,1-.2809-2.4651,5.6957,5.6957,0,0,1-.59-.5149,1.9989,1.9989,0,0,1-.2466-2.3684,2.2842,2.2842,0,0,1-1.0079-2.047A2.3332,2.3332,0,0,1,2.2551,8.7348l6.4156-.1561A10.9479,10.9479,0,0,1,9.5319.7464L9.7878.4812a2.3228,2.3228,0,0,1,3.0206.1342l.209.2278v.312a17.8294,17.8294,0,0,0,.24,3.8413l.025.0187.0749.2122a13.3783,13.3783,0,0,0,4.39,5.9163H20.01v9.8356l-2.7616-.0343a.6478.6478,0,0,0-.3775.0406,4.4718,4.4718,0,0,1-2.5994.93h-.0093l-8.7778-.0219A2.3506,2.3506,0,0,1,5.1259,21.9217Zm.24-1.6164,8.9089.0125a2.8682,2.8682,0,0,0,1.6694-.6366l.181-.1154a2.4406,2.4406,0,0,1,1.4635-.1841h.8238v-6.64h-1.164l-.2028-.1342A14.751,14.751,0,0,1,11.8878,5.87c-.2122-.3745-.4462-1.3324-.4649-4.2656a.9637.9637,0,0,0-.6085.1279,9.6012,9.6012,0,0,0-.3276,7.3611l.3557,1.03-8.5937.2091a.64.64,0,0,0-.6709.4993c-.0062-.0031-.0249.3214.6366.5991a1.1657,1.1657,0,0,1,.6646.9268,1.0607,1.0607,0,0,1-.3838.8675c-.0811.131-.2527.4524-.0905.6209a3.19,3.19,0,0,0,.6335.5055l.2278.14a1.1652,1.1652,0,0,1,.3963.855,1.2052,1.2052,0,0,1-.4213.8925c-.0249.0374-.1622.2933.181.7583a.6971.6971,0,0,0,.3276.2059l.206.0437.1591.1373a1.1952,1.1952,0,0,1,.4088.98,1.041,1.041,0,0,1-.5492.7957c.078-.0624-.0281.0749-.0312.1654a.6309.6309,0,0,0,.2153.3713A1.4064,1.4064,0,0,0,5.3661,20.3053ZM3.0945,17.8308c-.0032,0-.0094.0031-.0156.0125l.0156-.0125Zm-.9518-2.7522Z"/></svg>