<svg id="Layer_1" data-name="Layer 1" xmlns="http://www.w3.org/2000/svg" width="27.64" height="22" viewBox="0 0 27.64 22"><defs><style>.cls-1{fill:#29abe2;}</style></defs><path class="cls-1" d="M23.47,0H4.17A4.17,4.17,0,0,0,0,4.17V17.83A4.17,4.17,0,0,0,4.17,22h19.3a4.17,4.17,0,0,0,4.17-4.17V4.17A4.17,4.17,0,0,0,23.47,0ZM25.1,17.83a1.63,1.63,0,0,1-1.63,1.63h0l-9.36-7L9.16,15.15,5.1,9.39l-2.56,4V4.17A1.63,1.63,0,0,1,4.17,2.54h19.3A1.63,1.63,0,0,1,25.1,4.17Z"/><circle class="cls-1" cx="20.17" cy="7.19" r="2.26"/></svg>