<svg id="Layer_1" data-name="Layer 1" xmlns="http://www.w3.org/2000/svg" width="24.1008" height="18.5391" viewBox="0 0 24.1008 18.5391"><defs><style>.cls-1{fill:#4d4d4d;}</style></defs><path class="cls-1" d="M20.8536,0H3.2473A3.2474,3.2474,0,0,0,0,3.2474V15.2918a3.2473,3.2473,0,0,0,3.2473,3.2473H20.8536a3.2472,3.2472,0,0,0,3.2472-3.2473V3.2474A3.2473,3.2473,0,0,0,20.8536,0Zm-4.81,9.4542L9.6642,13.6769a.2214.2214,0,0,1-.3436-.1847V5.047a.2214.2214,0,0,1,.3436-.1847L16.0433,9.085A.2213.2213,0,0,1,16.0433,9.4542Z"/></svg>