<svg id="Layer_1" data-name="Layer 1" xmlns="http://www.w3.org/2000/svg" width="24.2358" height="19.2897" viewBox="0 0 24.2358 19.2897"><defs><style>.cls-1{fill:#4d4d4d;}</style></defs><path class="cls-1" d="M20.583,0H3.6528A3.6569,3.6569,0,0,0,0,3.6528V15.6369A3.6569,3.6569,0,0,0,3.6528,19.29h16.93a3.657,3.657,0,0,0,3.6528-3.6528V3.6528A3.657,3.657,0,0,0,20.583,0ZM22.01,15.6369a1.4288,1.4288,0,0,1-1.427,1.4271h-.0416l-8.203-6.167-4.304,2.386L4.4724,8.2368,2.2257,11.7673V3.6528A1.4289,1.4289,0,0,1,3.6528,2.2257h16.93A1.4288,1.4288,0,0,1,22.01,3.6528Z"/><circle class="cls-1" cx="17.6822" cy="6.3062" r="1.9784"/></svg>